Coordinates
version=1
nRows=5
nColumns=53
inDegrees=yes

Units are S.I. units (second, meters, Newtons, ...)
If the header above contains a line with 'inDegrees', this indicates whether rotational values are in degrees (yes) or radians (no).

endheader
time	pelvis_tilt	pelvis_list	pelvis_rot	pelvis_tx	pelvis_ty	pelvis_tz	hip_flex_r	hip_add_r	hip_rot_r	pf_flex_r	pf_rot_r	pf_tilt_r	pf_tx_r	pf_ty_r	pf_tz_r	knee_flex_r	knee_add_r	knee_rot_r	knee_tx_r	knee_ty_r	knee_tz_r	ankle_flex_r	subt_angle_r	mtp_angle_r	hip_flex_l	hip_add_l	hip_rot_l	pf_l_r3	pf_l_tx	pf_l_ty	knee_flex_l	ankle_flex_l	subt_angle_l	mtp_angle_l	lumbar_ext	lumbar_latbend	lumbar_rot	neck_ext	neck_latbend	neck_rot	arm_add_r	arm_flex_r	arm_rot_r	elbow_flex_r	pro_sup_r	wrist_flex_r	arm_add_l	arm_flex_l	arm_rot_l	elbow_flex_l	pro_sup_l	wrist_flex_l
      7.27200000	     -8.28510964	      0.36542467	     -0.41611887	      0.55176758	      0.87465773	      0.24165224	     -2.66386826	      1.86816244	     -3.90647960	     10.85476192	      0.39246235	     -0.99054942	      0.05096341	     -0.00543629	      0.00436518	     16.26083798	      0.77266909	      1.67174955	      0.00383745	      0.00044887	     -0.00126784	     22.21869062	    -11.94318707	      0.00000000	     34.98291760	      0.04754556	      7.78333661	      0.06513700	      0.04435000	     -0.41871200	      0.14046245	     -0.05405241	     -0.12974445	      0.00000000	     -1.38514625	      1.45431552	      2.40229922	      0.00000000	      0.00000000	      0.00000000	      0.00000000	      0.00000000	      0.00000000	      0.00000000	     60.00000000	      0.00000000	      0.00000000	      0.00000000	      0.00000000	      0.00000000	     60.00000000	      0.00000000
      7.27600000	     -8.42907272	      0.30607101	     -0.44880956	      0.55608580	      0.87385788	      0.24095493	     -2.76336277	      1.86836041	     -3.90351937	     10.86419774	      0.39676755	     -0.98159555	      0.05094770	     -0.00547944	      0.00436951	     16.31268256	      0.77528247	      1.66913661	      0.00383917	      0.00044542	     -0.00127125	     22.22079813	    -11.93833640	      0.00000000	     34.93568341	      0.00553992	      7.79573888	      0.06513700	      0.04435000	     -0.41871200	      0.14132728	     -0.05421231	     -0.12975632	      0.00000000	     -1.39415110	      1.44185946	      2.40591123	      0.00000000	      0.00000000	      0.00000000	      0.00000000	      0.00000000	      0.00000000	      0.00000000	     60.00000000	      0.00000000	      0.00000000	      0.00000000	      0.00000000	      0.00000000	     60.00000000	      0.00000000
      7.28000000	     -8.57974646	      0.25984921	     -0.48665643	      0.56056653	      0.87354733	      0.24033418	     -2.88368787	      1.85233838	     -3.89782042	     10.87508705	      0.40171434	     -0.97131033	      0.05092972	     -0.00552890	      0.00437454	     16.37220940	      0.77826537	      1.66612415	      0.00384371	      0.00044272	     -0.00127410	     22.22185781	    -11.93252180	      0.00000000	     34.89671321	     -0.02609020	      7.79951666	      0.06513700	      0.04435000	     -0.41871200	      0.14248808	     -0.05448830	     -0.12973419	      0.00000000	     -1.40000598	      1.42952911	      2.41014170	      0.00000000	      0.00000000	      0.00000000	      0.00000000	      0.00000000	      0.00000000	      0.00000000	     60.00000000	      0.00000000	      0.00000000	      0.00000000	      0.00000000	      0.00000000	     60.00000000	      0.00000000
      7.28400000	     -8.72411775	      0.21936225	     -0.53641641	      0.56500011	      0.87290253	      0.23976685	     -2.99943320	      1.83297572	     -3.89030522	     10.88546518	      0.40640266	     -0.96165502	      0.05091264	     -0.00557560	      0.00437936	     16.42898000	      0.78108850	      1.66322801	      0.00384546	      0.00043676	     -0.00127790	     22.22115382	    -11.92573237	      0.00000000	     34.85067817	     -0.06953144	      7.79759856	      0.06513700	      0.04435000	     -0.41871200	      0.14405277	     -0.05489686	     -0.12967759	      0.00000000	     -1.40217081	      1.41813040	      2.41451875	      0.00000000	      0.00000000	      0.00000000	      0.00000000	      0.00000000	      0.00000000	      0.00000000	     60.00000000	      0.00000000	      0.00000000	      0.00000000	      0.00000000	      0.00000000	     60.00000000	      0.00000000
      7.28800000	     -8.45601815	      0.68154652	     -0.98364598	      0.56897029	      0.87287022	      0.23981637	     -3.53299118	      1.16759963	     -3.72238487	     10.88922355	      0.40810311	     -0.95822790	      0.05090633	     -0.00559251	      0.00438108	     16.44907668	      0.78214278	      1.66216999	      0.00384844	      0.00043992	     -0.00128198	     22.23272166	    -11.74092377	      0.00000000	     34.98991860	     -0.24577305	      7.68182539	      0.06513700	      0.04435000	     -0.41871200	      0.16923534	     -0.06361676	     -0.12869997	      0.00000000	     -1.21014400	      1.22178904	      2.51802095	      0.00000000	      0.00000000	      0.00000000	      0.00000000	      0.00000000	      0.00000000	      0.00000000	     60.00000000	      0.00000000	      0.00000000	      0.00000000	      0.00000000	      0.00000000	     60.00000000	      0.00000000
